<?xml version="1.0" encoding="UTF-8" standalone="no"?>
<!DOCTYPE svg PUBLIC "-//W3C//DTD SVG 1.1//EN" "http://www.w3.org/Graphics/SVG/1.1/DTD/svg11.dtd">
<svg width="100%" height="100%" viewBox="0 0 338 178" version="1.1" xmlns="http://www.w3.org/2000/svg" xmlns:xlink="http://www.w3.org/1999/xlink" xml:space="preserve" xmlns:serif="http://www.serif.com/" style="fill-rule:evenodd;clip-rule:evenodd;stroke-linejoin:round;stroke-miterlimit:2;">
    <g id="Plan-de-travail1" serif:id="Plan de travail1" transform="matrix(0.264062,0,0,0.2225,0,0)">
        <rect x="0" y="0" width="1280" height="800" style="fill:none;"/>
        <g transform="matrix(7.36697,0,0,8.7431,-816.532,-867.28)">
            <g transform="matrix(1,0,0,1,80.7005,-2)">
                <text x="94.73px" y="139.352px" style="font-family:'Impact', sans-serif;font-stretch:condensed;font-size:36px;fill:rgb(12,60,103);">HEAL<tspan x="159.066px 175.659px " y="139.352px 139.352px ">TH</tspan></text>
            </g>
            <g transform="matrix(1,0,0,1,79.8431,41)">
                <text x="94.73px" y="139.352px" style="font-family:'ArialMT', 'Arial', sans-serif;font-size:31px;fill:rgb(22,122,211);">SP<tspan x="133.782px 154.459px " y="139.352px 139.352px ">AC</tspan>E</text>
            </g>
            <g transform="matrix(1.58065,0,0,0.666667,-158.097,49.6667)">
                <path d="M274,142.25C274,141.008 273.575,140 273.051,140L212.949,140C212.425,140 212,141.008 212,142.25L212,146.75C212,147.992 212.425,149 212.949,149L273.051,149C273.575,149 274,147.992 274,146.75L274,142.25Z" style="fill:rgb(12,60,103);"/>
            </g>
            <g>
                <g transform="matrix(0.679487,0,0,0.503497,66.641,69.7273)">
                    <path d="M158,104.316C158,89.792 149.262,78 138.5,78L99.5,78C88.738,78 80,89.792 80,104.316L80,194.684C80,209.208 88.738,221 99.5,221L138.5,221C149.262,221 158,209.208 158,194.684L158,104.316Z" style="fill:rgb(12,60,103);"/>
                </g>
                <g transform="matrix(-0.695992,-0.00583049,0.00772666,-0.525192,212.231,202.089)">
                    <path d="M89.5,126.4C94.026,116 103.079,116 107.605,121.2C112.132,126.4 112.132,136.8 107.605,147.2C104.437,155 96.289,162.8 89.5,168C82.711,162.8 74.563,155 71.395,147.2C66.868,136.8 66.868,126.4 71.395,121.2C75.921,116 84.974,116 89.5,126.4Z" style="fill:rgb(22,122,211);"/>
                </g>
                <g transform="matrix(0.0268562,0.695498,-0.524975,0.0169422,205.513,82.6704)">
                    <path d="M89.5,126.4C94.026,116 103.079,116 107.605,121.2C112.132,126.4 112.132,136.8 107.605,147.2C104.437,155 96.289,162.8 89.5,168C82.711,162.8 74.563,155 71.395,147.2C66.868,136.8 66.868,126.4 71.395,121.2C75.921,116 84.974,116 89.5,126.4Z" style="fill:rgb(22,122,211);"/>
                </g>
                <g transform="matrix(0.695657,0.0229468,-0.0173155,0.524939,94.1593,86.4158)">
                    <path d="M89.5,126.4C94.026,116 103.079,116 107.605,121.2C112.132,126.4 112.132,136.8 107.605,147.2C104.437,155 96.289,162.8 89.5,168C82.711,162.8 74.563,155 71.395,147.2C66.868,136.8 66.868,126.4 71.395,121.2C75.921,116 84.974,116 89.5,126.4Z" style="fill:rgb(22,122,211);"/>
                </g>
                <g transform="matrix(-0.0544313,-0.607651,0.666504,-0.0597031,115.703,222.474)">
                    <path d="M116,59L117,48C117,48 119.27,39.482 122,48L121,69C121,69 131.77,57.482 145,65C145,65 155.02,70.732 144,70C144,70 138.27,59.732 124,70C124,70 116.52,88.982 122,97L112,97C112,97 123.77,72.482 115,69C115,69 103.02,64.732 97,70C97,70 80.52,70.982 96,65C96,65 110.27,62.482 115,65L116,59" style="fill:white;"/>
                </g>
            </g>
        </g>
    </g>
</svg>
